<svg width="22" height="22" viewBox="0 0 22 22" fill="none" xmlns="http://www.w3.org/2000/svg">
<path d="M21.244 9.00016C21.3772 9.71408 21.4498 10.4605 21.4498 11.2394C21.4498 17.3321 17.3722 21.6643 11.2134 21.6643C9.81283 21.6648 8.42589 21.3892 7.13184 20.8534C5.83779 20.3176 4.66199 19.5321 3.67163 18.5418C2.68127 17.5514 1.89576 16.3756 1.35998 15.0816C0.824195 13.7875 0.548646 12.4006 0.549073 11C0.548646 9.59942 0.824195 8.21248 1.35998 6.91843C1.89576 5.62438 2.68127 4.44858 3.67163 3.45822C4.66199 2.46786 5.83779 1.68235 7.13184 1.14657C8.42589 0.610786 9.81283 0.335236 11.2134 0.335663C14.0929 0.335663 16.499 1.39516 18.345 3.1155L15.3387 6.12175V6.11416C14.2197 5.04816 12.7994 4.50108 11.2134 4.50108C7.69474 4.50108 4.83474 7.47375 4.83474 10.9935C4.83474 14.5122 7.69474 17.4913 11.2134 17.4913C14.406 17.4913 16.5792 15.6659 17.0255 13.1591H11.2134V9.00016H21.2451H21.244Z" fill="white"/>
</svg>
